<?xml version="1.0" encoding="UTF-8"?>
<svg id="Layer_1" data-name="Layer 1" xmlns="http://www.w3.org/2000/svg" viewBox="0 0 400 165.67">
  <defs>
    <style>
      .cls-1 {
        font-family: PlusJakartaSansItalic-SemiBoldItalic, 'Plus Jakarta Sans';
        font-size: 48px;
        font-style: italic;
        font-variation-settings: 'wght' 600;
        font-weight: 600;
      }

      .cls-2 {
        letter-spacing: -.08em;
      }

      .cls-3 {
        fill: #231f20;
      }
    </style>
  </defs>
  <text class="cls-1" transform="translate(144.18 119.38)"><tspan x="0" y="0">Duck In</tspan><tspan class="cls-2" x="170.3" y="0">c</tspan><tspan x="196.17" y="0">.</tspan></text>
  <g>
    <circle class="cls-3" cx="132.01" cy="53.76" r="5.43" transform="translate(31.82 155.14) rotate(-67.5)"/>
    <path class="cls-3" d="m173.04,62.72c-3.6,0-16.78-1.04-26.73-15.38-5.77-8.97-13.15-12.57-20.8-12.57-12.98,0-23.5,10.52-23.5,23.5,0,3.26.66,6.36,1.86,9.18l4.86,11.33,4.97-2.11,5.56,2.11,4.56-2.33,7.31,2.33-4.88-11.33h44.54l3.21-4.76s-.34.03-.94.03Zm-30.47-.27h-23.93l3.01,6.98.89,2.05-1,.51-2.58,1.32-3.48-1.32-1.88-.71-1.85.79-.38.16-2.89-6.73c-.97-2.29-1.46-4.72-1.46-7.23,0-10.2,8.3-18.5,18.5-18.5,6.63,0,12.21,3.46,16.6,10.28l.05.07.05.07c1.01,1.46,2.05,2.8,3.12,4.02,1.27,3.51-.67,6.36-2.75,8.24Z"/>
    <path class="cls-3" d="m126.2,83.28l-4.33,2.48-6.44-1.98-4.67,1.98h-39.32c-17.13,14.63-28.5,33.62-28.5,33.62h37.07l-6.19,6.19,3.54,3.54,9.72-9.72h11.41l-6.19,6.19,3.54,3.54,9.72-9.72h3.46c13.87,0,25.11-11.24,25.11-25.11,0-2.98-.52-5.85-1.48-8.5l-6.46-2.48Zm-17.17,31.09h-3.15l-10.03-10.03-3.54,3.54,6.49,6.49h-11.41l-10.03-10.03-3.54,3.54,6.49,6.49h-28c4.55-6.32,11.89-15.56,20.99-23.62h38.46l.94-.4,2.99-1.27,4.7,1.44,2.07.64,1.88-1.08,2.27-1.3,1.96.75c.37,1.54.56,3.11.56,4.71,0,11.09-9.02,20.11-20.11,20.11Z"/>
  </g>
</svg>