<svg width="38" height="38" viewBox="0 0 38 38" fill="none" xmlns="http://www.w3.org/2000/svg">
<g clip-path="url(#clip0_14_68)">
<rect width="38" height="38" fill="white"/>
<path d="M19 0C20.1046 4.82823e-08 21 0.895431 21 2V17H36C37.1046 17 38 17.8954 38 19C38 20.1046 37.1046 21 36 21H21V36C21 37.1046 20.1046 38 19 38C17.8954 38 17 37.1046 17 36V21H2C0.895431 21 0 20.1046 0 19C0 17.8954 0.895431 17 2 17H17V2C17 0.895431 17.8954 -4.82823e-08 19 0Z" fill="#D9D9D9"/>
</g>
<defs>
<clipPath id="clip0_14_68">
<rect width="38" height="38" fill="white"/>
</clipPath>
</defs>
</svg>
